<?xml version="1.0" encoding="UTF-8" standalone="no"?>
<!-- Created with Inkscape (http://www.inkscape.org/) -->

<svg
   xmlns:dc="http://purl.org/dc/elements/1.1/"
   xmlns:cc="http://creativecommons.org/ns#"
   xmlns:rdf="http://www.w3.org/1999/02/22-rdf-syntax-ns#"
   xmlns:svg="http://www.w3.org/2000/svg"
   xmlns="http://www.w3.org/2000/svg"
   xmlns:sodipodi="http://sodipodi.sourceforge.net/DTD/sodipodi-0.dtd"
   xmlns:inkscape="http://www.inkscape.org/namespaces/inkscape"
   width="234"
   height="264"
   id="svg2"
   version="1.1"
   inkscape:version="0.48.2 r9819"
   sodipodi:docname="hashtag.svg"
   inkscape:export-filename="C:\Users\Stephan\Desktop\hashtag.png"
   inkscape:export-xdpi="90"
   inkscape:export-ydpi="90">
  <defs
     id="defs4" />
  <sodipodi:namedview
     id="base"
     pagecolor="#2b48dd"
     bordercolor="#666666"
     borderopacity="1.0"
     inkscape:pageopacity="0"
     inkscape:pageshadow="2"
     inkscape:zoom="1.4"
     inkscape:cx="91.75029"
     inkscape:cy="197.74405"
     inkscape:document-units="px"
     inkscape:current-layer="layer1"
     showgrid="true"
     inkscape:snap-bbox="true"
     inkscape:window-width="1920"
     inkscape:window-height="1148"
     inkscape:window-x="-32000"
     inkscape:window-y="-32000"
     inkscape:window-maximized="1">
    <inkscape:grid
       type="xygrid"
       id="grid2985"
       empspacing="5"
       visible="true"
       enabled="true"
       snapvisiblegridlinesonly="true" />
  </sodipodi:namedview>
  <metadata
     id="metadata7">
    <rdf:RDF>
      <cc:Work
         rdf:about="">
        <dc:format>image/svg+xml</dc:format>
        <dc:type
           rdf:resource="http://purl.org/dc/dcmitype/StillImage" />
        <dc:title></dc:title>
      </cc:Work>
    </rdf:RDF>
  </metadata>
  <g
     inkscape:label="Ebene 1"
     inkscape:groupmode="layer"
     id="layer1"
     transform="translate(0,-788.36218)">
    <path
       style="font-size:397.98751831px;font-style:normal;font-variant:normal;font-weight:normal;font-stretch:normal;text-align:start;line-height:125%;letter-spacing:0px;word-spacing:0px;writing-mode:lr-tb;text-anchor:start;fill:#ffffff;fill-opacity:1;stroke:none;font-family:Sans;-inkscape-font-specification:Sans"
       d="M 54.375 0 L 56.125 48.5 L 0 61.96875 L 0 66.90625 L 5.65625 90.40625 L 57.25 78 L 59.75 149.96875 L 22.15625 159 L 28.9375 187.15625 L 60.84375 179.46875 L 63.78125 263.90625 L 92.125 257.09375 L 89.1875 172.65625 L 148.53125 158.375 L 151.625 242.78125 L 179.96875 235.96875 L 177.0625 151.53125 L 234 137.84375 L 234 132.34375 L 228.46875 109.375 L 175.96875 122 L 173.625 50 L 211.96875 40.78125 L 205.21875 12.625 L 172.53125 20.5 L 171.78125 0 L 143 0 L 144 27.375 L 84.46875 41.6875 L 82.96875 0 L 54.375 0 z M 145.09375 56.875 L 147.4375 128.875 L 88.09375 143.15625 L 85.59375 71.1875 L 145.09375 56.875 z "
       transform="translate(0,788.36218)"
       id="text3974" />
  </g>
</svg>
